<svg width="104" height="24" viewBox="0 0 104 24" fill="none" xmlns="http://www.w3.org/2000/svg">
<path d="M28.2046 13.0909H30.4213L34.1042 6.45818L33.0046 4.45091L28.2046 13.0909ZM35.7624 3.456L34.6453 1.46619L33.5457 3.456L34.6453 5.44582L38.8868 13.0909H41.086L35.7624 3.456ZM51.2249 6.07419H45.4649L46.2504 7.74982H49.5493V11.4327H45.622C43.5275 11.1535 41.9217 9.408 41.9217 7.31346C41.9217 5.21891 43.5275 3.47346 45.622 3.19419H51.19V1.536H46.2155C44.5919 1.536 43.1086 2.16437 42.0439 3.19419C40.9617 4.24146 40.2809 5.70764 40.2809 7.31346C40.2809 8.91927 40.9617 10.3855 42.0439 11.4327C43.1086 12.4625 44.5919 13.0909 46.2155 13.0909H51.2249V6.07419ZM60.0163 7.104L59.8069 6.78982C59.8243 6.77237 59.8418 6.77237 59.8418 6.75491C59.8592 6.75491 59.8592 6.75491 59.8592 6.75491C59.8941 6.73746 59.929 6.72 59.9465 6.68509H59.964C59.9814 6.66764 60.0163 6.65019 60.0512 6.63273C60.121 6.58037 60.1909 6.528 60.2432 6.47564C60.2607 6.47564 60.2781 6.45818 60.2956 6.44073C60.3305 6.42327 60.3479 6.40582 60.3654 6.38837C60.4003 6.35346 60.4352 6.31855 60.4701 6.30109L60.4876 6.28364C60.505 6.26618 60.54 6.24873 60.5574 6.21382C60.6447 6.16146 60.7145 6.09164 60.7843 6.00437C61.5698 5.23637 62.1283 4.25891 62.3727 3.14182C62.4599 2.74037 62.5123 2.32146 62.5123 1.88509C62.5123 1.74546 62.5123 1.60582 62.4949 1.46619H52.8774V13.0909H54.553V7.68H56.6999C56.7523 7.68 56.7872 7.68 56.8221 7.68C56.8396 7.68 56.8745 7.68 56.892 7.68C56.9269 7.68 56.9618 7.68 56.9792 7.68C56.9967 7.68 56.9967 7.68 57.0141 7.68C57.049 7.68 57.1014 7.68 57.1538 7.66255C57.2061 7.66255 57.241 7.66255 57.2934 7.66255C57.3283 7.64509 57.3807 7.64509 57.4156 7.64509C57.433 7.64509 57.4505 7.64509 57.468 7.62764C57.5029 7.62764 57.5378 7.62764 57.5727 7.62764C57.5901 7.61019 57.6076 7.61019 57.625 7.61019C57.6425 7.61019 57.6774 7.61018 57.7123 7.59273C57.7996 7.57527 57.9043 7.55782 58.009 7.54037C58.0439 7.52291 58.0963 7.52291 58.1312 7.50546C58.1487 7.50546 58.1487 7.50546 58.1661 7.50546C58.201 7.488 58.2185 7.488 58.2534 7.47055C58.2709 7.47055 58.2709 7.47055 58.2709 7.47055L58.3756 7.62764L61.7094 13.0909H63.6643L60.0163 7.104ZM58.3407 5.67273C57.8345 5.89964 57.2759 6.00437 56.6999 6.00437H54.553V3.14182H60.6447C60.4352 3.77019 60.0861 4.34619 59.6149 4.81746C59.2309 5.184 58.8119 5.48073 58.3407 5.67273ZM64.375 13.0909H66.5918L70.2747 6.45818L69.175 4.45091L64.375 13.0909ZM71.9329 3.456L70.8158 1.46619L69.7161 3.456L70.8158 5.44582L75.0572 13.0909H77.2565L71.9329 3.456ZM78.1729 13.0909H79.8485V6.70255L78.1729 5.02691V13.0909ZM85.7132 1.50109V9.00655L78.1729 1.48364V3.84L79.8485 5.51564L85.7132 11.3804L87.3714 13.0385V1.50109H85.7132ZM99.4333 6.51055C99.0319 3.70036 96.6406 1.536 93.7431 1.50109H89.0479V3.17673H93.8479C94.7206 3.22909 95.5235 3.52582 96.1693 4.01455C96.9722 4.62546 97.5308 5.49818 97.7402 6.51055C97.7926 6.77236 97.8275 7.05164 97.8275 7.33091C97.8275 7.61019 97.7926 7.90691 97.7228 8.18619C97.3737 9.86182 95.9948 11.1709 94.2668 11.4327H90.7235V4.01455H89.0479V13.0909H94.3889C96.9897 12.7767 99.0493 10.752 99.4333 8.18619C99.4682 7.90691 99.4857 7.61019 99.4857 7.33091C99.4857 7.05164 99.4682 6.77236 99.4333 6.51055ZM101.167 13.0909V1.48364H102.843V13.0909H101.167ZM102.791 1.536H101.22V13.0385H102.791V1.536ZM101.167 1.48364V13.0909H102.843V1.48364H101.167Z" fill="#1C1C24"/>
<path d="M30.8503 17.8582H29.7476V21.2727H29.3004V17.8582H28.2002V17.4535H30.8503V17.8582ZM36.8582 21.2727H34.834V17.4535H36.7731V17.8582H35.2815V19.1288H36.661V19.5308H35.2815V20.868H36.8582V21.2727ZM43.5746 21.1129C43.2921 21.2621 42.9406 21.3366 42.5197 21.3366C41.9765 21.3366 41.5415 21.1617 41.2147 20.8121C40.888 20.4622 40.7246 20.0032 40.7246 19.4351C40.7246 18.8242 40.9085 18.3306 41.2761 17.9542C41.6437 17.5778 42.1098 17.3896 42.6744 17.3896C43.0365 17.3896 43.3366 17.442 43.5746 17.5467V18.0235C43.3011 17.8707 42.9992 17.7944 42.6689 17.7944C42.2304 17.7944 41.8745 17.9408 41.6009 18.2337C41.3293 18.5269 41.1935 18.9183 41.1935 19.4084C41.1935 19.8737 41.3206 20.2446 41.5745 20.5217C41.83 20.7968 42.1646 20.9346 42.5784 20.9346C42.9621 20.9346 43.294 20.8492 43.5746 20.6787V21.1129ZM50.6053 21.2727H50.1577V19.5308H48.1815V21.2727H47.734V17.4535H48.1815V19.1288H50.1577V17.4535H50.6053V21.2727ZM58.0671 21.2727H57.5186L55.5531 18.2286C55.5032 18.1522 55.4625 18.0723 55.4306 17.9888H55.4145C55.4287 18.0704 55.4358 18.2455 55.4358 18.5136V21.2727H54.9883V17.4535H55.5689L57.4813 20.4496C57.5612 20.574 57.6127 20.6594 57.6356 20.7055H57.6465C57.6285 20.5953 57.6198 20.4079 57.6198 20.1434V17.4535H58.0671V21.2727ZM63.9899 21.3366C63.4483 21.3366 63.0141 21.1582 62.6876 20.8012C62.3626 20.4445 62.2 19.98 62.2 19.4084C62.2 18.7939 62.3661 18.3041 62.6983 17.9381C63.0302 17.5724 63.4821 17.3896 64.0537 17.3896C64.5812 17.3896 65.0056 17.5672 65.3268 17.9223C65.65 18.2774 65.8117 18.7416 65.8117 19.3151C65.8117 19.9383 65.6465 20.4311 65.3162 20.7933C64.9859 21.1555 64.5438 21.3366 63.9899 21.3366ZM64.0218 17.7944C63.6206 17.7944 63.2947 17.9392 63.0444 18.2286C62.794 18.5179 62.6688 18.8978 62.6688 19.3686C62.6688 19.839 62.7905 20.2181 63.0337 20.5058C63.2786 20.7916 63.5975 20.9346 63.9899 20.9346C64.4088 20.9346 64.7391 20.7977 64.9807 20.5244C65.2221 20.2508 65.3429 19.8682 65.3429 19.3765C65.3429 18.8722 65.2256 18.4825 64.9914 18.2073C64.7568 17.9321 64.4339 17.7944 64.0218 17.7944ZM71.926 21.2727H69.9444V17.4535H70.3919V20.868H71.926V21.2727ZM77.2469 21.3366C76.7053 21.3366 76.2711 21.1582 75.9444 20.8012C75.6195 20.4445 75.457 19.98 75.457 19.4084C75.457 18.7939 75.6231 18.3041 75.955 17.9381C76.2872 17.5724 76.7391 17.3896 77.3107 17.3896C77.8379 17.3896 78.2623 17.5672 78.5838 17.9223C78.907 18.2774 79.0685 18.7416 79.0685 19.3151C79.0685 19.9383 78.9035 20.4311 78.5732 20.7933C78.2429 21.1555 77.8008 21.3366 77.2469 21.3366ZM77.2788 17.7944C76.8774 17.7944 76.5517 17.9392 76.3014 18.2286C76.051 18.5179 75.9258 18.8978 75.9258 19.3686C75.9258 19.839 76.0475 20.2181 76.2907 20.5058C76.5356 20.7916 76.8545 20.9346 77.2469 20.9346C77.6658 20.9346 77.9961 20.7977 78.2375 20.5244C78.4791 20.2508 78.5996 19.8682 78.5996 19.3765C78.5996 18.8722 78.4826 18.4825 78.2481 18.2073C78.0138 17.9321 77.6906 17.7944 77.2788 17.7944ZM86.0565 21.0117C85.6731 21.2283 85.2468 21.3366 84.778 21.3366C84.2331 21.3366 83.7918 21.1609 83.4545 20.8094C83.1187 20.4578 82.951 19.9926 82.951 19.4138C82.951 18.8226 83.1375 18.3376 83.5104 17.9596C83.8851 17.5795 84.3591 17.3896 84.9326 17.3896C85.348 17.3896 85.6968 17.457 85.9794 17.592V18.0873C85.6704 17.892 85.3046 17.7944 84.8819 17.7944C84.454 17.7944 84.1033 17.9417 83.83 18.2365C83.5565 18.5313 83.4198 18.9131 83.4198 19.3817C83.4198 19.8647 83.5466 20.2446 83.8005 20.5217C84.0545 20.7968 84.3989 20.9346 84.8339 20.9346C85.1323 20.9346 85.3905 20.8751 85.609 20.7559V19.6855H84.7728V19.2805H86.0565V21.0117ZM90.7753 21.2727H90.328V17.4535H90.7753V21.2727ZM97.1879 21.2727H95.164V17.4535H97.1028V17.8582H95.6113V19.1288H96.991V19.5308H95.6113V20.868H97.1879V21.2727ZM101.126 21.1184V20.5909C101.187 20.6441 101.259 20.6921 101.342 20.7347C101.427 20.7775 101.516 20.8137 101.609 20.844C101.703 20.8724 101.797 20.8945 101.891 20.9106C101.985 20.9264 102.072 20.9346 102.152 20.9346C102.427 20.9346 102.632 20.8838 102.767 20.7827C102.904 20.6798 102.972 20.5323 102.972 20.3406C102.972 20.2375 102.949 20.148 102.903 20.0717C102.858 19.9953 102.797 19.926 102.717 19.8638C102.637 19.8 102.542 19.7395 102.432 19.6827C102.323 19.6241 102.206 19.5627 102.08 19.4989C101.947 19.4316 101.823 19.3631 101.707 19.2938C101.592 19.2246 101.491 19.1482 101.406 19.0647C101.321 18.9813 101.253 18.8872 101.204 18.7825C101.156 18.6761 101.132 18.5517 101.132 18.4097C101.132 18.2357 101.17 18.0848 101.246 17.9569C101.323 17.8274 101.423 17.7207 101.547 17.6373C101.672 17.5538 101.813 17.4916 101.971 17.4507C102.131 17.4101 102.293 17.3896 102.458 17.3896C102.834 17.3896 103.109 17.4349 103.281 17.5255V18.0287C103.056 17.8727 102.766 17.7944 102.413 17.7944C102.315 17.7944 102.218 17.805 102.12 17.8263C102.022 17.8459 101.935 17.8787 101.859 17.925C101.783 17.9711 101.72 18.0306 101.672 18.1034C101.625 18.1762 101.601 18.2648 101.601 18.3696C101.601 18.4675 101.618 18.5517 101.654 18.6226C101.691 18.6938 101.745 18.7585 101.816 18.8171C101.887 18.8757 101.973 18.9325 102.075 18.9876C102.178 19.0427 102.296 19.1029 102.429 19.1687C102.566 19.2363 102.695 19.3072 102.818 19.3817C102.94 19.4564 103.048 19.539 103.14 19.6296C103.232 19.7201 103.305 19.8202 103.358 19.9304C103.413 20.0406 103.441 20.1666 103.441 20.3086C103.441 20.4968 103.404 20.6566 103.329 20.7881C103.256 20.9176 103.157 21.0232 103.031 21.105C102.906 21.1866 102.763 21.2452 102.599 21.2806C102.436 21.318 102.264 21.3366 102.083 21.3366C102.022 21.3366 101.948 21.3314 101.859 21.3207C101.77 21.3117 101.679 21.2976 101.587 21.2782C101.495 21.2602 101.407 21.2381 101.324 21.2114C101.242 21.183 101.176 21.1519 101.126 21.1184Z" fill="#1C1C24"/>
<path d="M24 6C24 2.68629 21.3137 0 18 0H6C2.68629 0 0 2.68629 0 6V18C0 21.3137 2.68629 24 6 24H18C21.3137 24 24 21.3137 24 18V6Z" fill="#635BFF"/>
<path d="M18.5513 15.9929C18.4424 15.8192 18.2998 15.6692 18.1323 15.5516C17.9646 15.4338 17.7751 15.3506 17.5751 15.3067C16.8093 15.1286 16.145 14.6546 15.7277 13.9884C15.3104 13.3221 15.1735 12.5178 15.3475 11.7509C15.4143 11.4547 15.3922 11.1452 15.2837 10.8613C15.1752 10.5776 14.9853 10.3322 14.738 10.156C14.4903 9.97982 14.1963 9.88082 13.8928 9.871C13.589 9.86146 13.2893 9.94164 13.0313 10.1017C12.773 10.2621 12.5679 10.495 12.4416 10.7713C12.3153 11.0476 12.2736 11.3549 12.3216 11.6549C12.3693 11.9549 12.5049 12.2342 12.7111 12.4573C12.917 12.6806 13.1845 12.838 13.4796 12.9097C13.8617 12.9959 14.2228 13.1565 14.5424 13.3826C14.8621 13.6085 15.134 13.8954 15.3426 14.2267C15.5512 14.5578 15.6925 14.9271 15.758 15.313C15.8237 15.6992 15.8125 16.0941 15.7253 16.4759C15.6734 16.7219 15.6827 16.9766 15.752 17.2183C15.8215 17.4599 15.9489 17.6811 16.1232 17.8622C16.2977 18.0433 16.5137 18.1788 16.7523 18.2574C16.9912 18.3359 17.2457 18.3547 17.4933 18.3125C17.7412 18.2702 17.975 18.1679 18.1741 18.0144C18.3734 17.8611 18.5319 17.6615 18.6363 17.4326C18.7405 17.2038 18.7874 16.9532 18.7727 16.7023C18.7577 16.4511 18.6819 16.2075 18.5513 15.9929Z" fill="white"/>
<path d="M9.07317 14.2815C9.34289 14.4288 9.65025 14.4921 9.95625 14.4632C10.262 14.4345 10.5524 14.3148 10.7897 14.1201C11.0273 13.9251 11.201 13.6635 11.2888 13.3692C11.3766 13.075 11.3744 12.7611 11.2828 12.4679C11.1663 12.094 11.1249 11.701 11.1606 11.311C11.1966 10.921 11.309 10.5422 11.4917 10.1958C11.6742 9.84943 11.9234 9.54261 12.2248 9.29279C12.5262 9.04297 12.8739 8.85506 13.2481 8.7397C13.5385 8.64888 13.7952 8.47433 13.9864 8.23761C14.1775 8.00115 14.2945 7.71343 14.3224 7.41043C14.3504 7.1077 14.2883 6.80334 14.1434 6.53579C13.9989 6.26825 13.7785 6.04952 13.5099 5.90688C13.2413 5.76452 12.9363 5.70452 12.6339 5.73506C12.3312 5.76534 12.0443 5.88425 11.8092 6.07734C11.5741 6.27016 11.4014 6.52843 11.3128 6.81943C11.2242 7.11015 11.2236 7.42079 11.3109 7.71206C11.5405 8.46397 11.4628 9.27643 11.0952 9.97106C10.7273 10.666 10.0992 11.1869 9.34807 11.4195C9.05162 11.5054 8.7879 11.6783 8.59072 11.9162C8.39381 12.1537 8.27271 12.445 8.24298 12.7521C8.21325 13.0594 8.2768 13.3684 8.42462 13.6392C8.57271 13.9101 8.79853 14.1304 9.07317 14.2714V14.2815Z" fill="white"/>
<path d="M13.04 14.0298C12.8352 14.0369 12.6337 14.0851 12.4477 14.1711C12.2614 14.257 12.0942 14.3794 11.956 14.5308C11.4192 15.1049 10.6771 15.4431 9.89196 15.4714C9.10677 15.4998 8.34232 15.2161 7.7655 14.6824C7.61659 14.5425 7.44123 14.4337 7.24978 14.3622C7.05832 14.2908 6.85459 14.2583 6.65059 14.2662C6.39913 14.278 6.15451 14.3513 5.93796 14.4792C5.72169 14.6074 5.53977 14.7866 5.40832 15.0012C5.27714 15.2159 5.20023 15.4594 5.18468 15.7103C5.16886 15.9615 5.21495 16.2127 5.31886 16.4418C5.4225 16.6709 5.58095 16.8713 5.77977 17.0251C5.97886 17.1792 6.21258 17.282 6.46049 17.3249C6.7084 17.368 6.96285 17.3494 7.20204 17.2711C7.44122 17.1931 7.6575 17.0576 7.83232 16.8765C8.09823 16.5888 8.41813 16.3564 8.77376 16.1925C9.1294 16.0286 9.51423 15.9364 9.90559 15.9214C10.297 15.9064 10.6875 15.9686 11.0549 16.1047C11.4219 16.2408 11.7588 16.448 12.046 16.7148C12.2328 16.8836 12.458 17.0039 12.7024 17.0655C12.9465 17.1271 13.202 17.128 13.4467 17.068C13.6913 17.008 13.9174 16.8888 14.1056 16.7213C14.2935 16.5536 14.4375 16.3425 14.5248 16.1063C14.6123 15.8701 14.6407 15.616 14.6071 15.3664C14.5739 15.1166 14.4798 14.8791 14.3333 14.6742C14.1869 14.4694 13.9924 14.3036 13.7669 14.1912C13.5413 14.0789 13.292 14.0235 13.04 14.0298Z" fill="white"/>
</svg>
