<svg width="22" height="22" viewBox="0 0 22 22" fill="" xmlns="http://www.w3.org/2000/svg">
<path d="M3.99984 5.41408L0.756836 2.17208L2.17184 0.75708L5.41384 4.00008H20.6558C20.8117 4.00007 20.9654 4.03649 21.1047 4.10645C21.244 4.1764 21.365 4.27794 21.4581 4.40298C21.5511 4.52801 21.6137 4.67306 21.6407 4.82657C21.6678 4.98007 21.6586 5.13777 21.6138 5.28708L19.2138 13.2871C19.1521 13.4932 19.0255 13.6738 18.853 13.8023C18.6804 13.9307 18.471 14.0001 18.2558 14.0001H5.99984V16.0001H16.9998V18.0001H4.99984C4.73462 18.0001 4.48027 17.8947 4.29273 17.7072C4.10519 17.5197 3.99984 17.2653 3.99984 17.0001V5.41408ZM5.99984 6.00008V12.0001H17.5118L19.3118 6.00008H5.99984ZM5.49984 22.0001C5.10201 22.0001 4.72048 21.842 4.43918 21.5607C4.15787 21.2794 3.99984 20.8979 3.99984 20.5001C3.99984 20.1023 4.15787 19.7207 4.43918 19.4394C4.72048 19.1581 5.10201 19.0001 5.49984 19.0001C5.89766 19.0001 6.27919 19.1581 6.5605 19.4394C6.8418 19.7207 6.99984 20.1023 6.99984 20.5001C6.99984 20.8979 6.8418 21.2794 6.5605 21.5607C6.27919 21.842 5.89766 22.0001 5.49984 22.0001ZM17.4998 22.0001C17.102 22.0001 16.7205 21.842 16.4392 21.5607C16.1579 21.2794 15.9998 20.8979 15.9998 20.5001C15.9998 20.1023 16.1579 19.7207 16.4392 19.4394C16.7205 19.1581 17.102 19.0001 17.4998 19.0001C17.8977 19.0001 18.2792 19.1581 18.5605 19.4394C18.8418 19.7207 18.9998 20.1023 18.9998 20.5001C18.9998 20.8979 18.8418 21.2794 18.5605 21.5607C18.2792 21.842 17.8977 22.0001 17.4998 22.0001Z" fill=""/>
</svg>
