<svg width="38" height="38" viewBox="0 0 38 38" fill="none" xmlns="http://www.w3.org/2000/svg">
<path d="M18.9163 0.666656C8.79108 0.666656 0.583008 8.87477 0.583008 19C0.583008 29.1252 8.79108 37.3333 18.9163 37.3333C28.0005 37.3333 35.5415 30.7263 36.9962 22.0555H36.8646C35.5078 27.3271 30.7225 31.2222 25.0274 31.2222C18.2773 31.2222 12.8052 25.7501 12.8052 19C12.8052 12.2498 18.2773 6.77777 25.0274 6.77777C30.7225 6.77777 35.5078 10.6729 36.8646 15.9444H36.9962C35.5415 7.27364 28.0005 0.666656 18.9163 0.666656Z" fill="#A4BCFD"/>
<path d="M0.583008 19C0.583008 8.87477 8.79112 0.666656 18.9163 0.666656C28.0005 0.666656 35.5415 7.27364 36.9962 15.9444H24.6424C23.2856 10.6729 18.5003 6.77777 12.8052 6.77777C6.05508 6.77777 0.583008 12.2498 0.583008 19Z" fill="#3538CD"/>
<path d="M0.583008 19C0.583008 29.1252 8.79112 37.3333 18.9163 37.3333C28.0005 37.3333 35.5415 30.7263 36.9962 22.0555H24.6424C23.2856 27.3271 18.5003 31.2222 12.8052 31.2222C6.05508 31.2222 0.583008 25.7501 0.583008 19Z" fill="#3538CD"/>
</svg>
