<svg width="45" height="44" viewBox="0 0 45 44" fill="none" xmlns="http://www.w3.org/2000/svg">
<path d="M16.2972 31.4286C24.9759 31.4286 32.0114 24.3931 32.0114 15.7143C32.0114 14.7307 31.9211 13.7682 31.7482 12.8347C30.8147 12.6618 29.8522 12.5714 28.8686 12.5714C20.1898 12.5714 13.1543 19.607 13.1543 28.2857C13.1543 29.2693 13.2447 30.2318 13.4175 31.1653C14.3511 31.3382 15.3136 31.4286 16.2972 31.4286Z" fill="#175CD3"/>
<path fill-rule="evenodd" clip-rule="evenodd" d="M13.4177 31.1653C6.11418 29.8127 0.583008 23.4095 0.583008 15.7143C0.583008 7.03553 7.61853 0 16.2973 0C23.9925 0 30.3958 5.53118 31.7483 12.8347C30.8148 12.6618 29.8523 12.5714 28.8687 12.5714C20.19 12.5714 13.1544 19.607 13.1544 28.2857C13.1544 29.2693 13.2448 30.2318 13.4177 31.1653Z" fill="#1570EF"/>
<path fill-rule="evenodd" clip-rule="evenodd" d="M16.2971 31.4285C24.9758 31.4285 32.0114 24.393 32.0114 15.7142C32.0114 14.7306 31.921 13.7682 31.7481 12.8346C39.0516 14.1872 44.5828 20.5905 44.5828 28.2857C44.5828 36.9644 37.5473 43.9999 28.8685 43.9999C21.1733 43.9999 14.7701 38.4688 13.4175 31.1653C14.351 31.3381 15.3135 31.4285 16.2971 31.4285Z" fill="#2E90FA"/>
</svg>
