<svg width="26" height="24" viewBox="0 0 26 24" fill="none" xmlns="http://www.w3.org/2000/svg">
<path fill-rule="evenodd" clip-rule="evenodd" d="M6.50635 2C4.29721 2 2.50635 3.79086 2.50635 6V18C2.50635 20.2091 4.29721 22 6.50635 22H12.6624V15.1578H10.2317V12.4913H12.6624V10.5249C12.6624 8.2427 14.1333 7 16.2827 7C17.3123 7 18.1966 7.07288 18.4546 7.10528V9.49055L16.9642 9.49129C15.7955 9.49129 15.5694 10.0177 15.5694 10.7892V12.492H18.3567L17.9938 15.1585H15.5694V22H19.0635C21.2726 22 23.0635 20.2091 23.0635 18V6C23.0635 3.79086 21.2726 2 19.0635 2H6.50635Z" fill="#969696"/>
</svg>
