<svg width="26" height="24" viewBox="0 0 26 24" fill="none" xmlns="http://www.w3.org/2000/svg">
<path fill-rule="evenodd" clip-rule="evenodd" d="M12.7322 2C9.9407 2 9.59122 2.01167 8.49484 2.06C4.76201 2.22667 2.68745 4.24167 2.51614 7.87667C2.4656 8.94417 2.45361 9.28417 2.45361 12C2.45361 14.7158 2.4656 15.0567 2.51528 16.1233C2.68659 19.755 4.75773 21.7733 8.49399 21.94C9.59122 21.9883 9.9407 22 12.7322 22C15.5237 22 15.874 21.9883 16.9704 21.94C20.6998 21.7733 22.7795 19.7583 22.9482 16.1233C22.9988 15.0567 23.0108 14.7158 23.0108 12C23.0108 9.28417 22.9988 8.94417 22.9491 7.8775C22.7812 4.24917 20.7075 2.2275 16.9712 2.06083C15.874 2.01167 15.5237 2 12.7322 2ZM12.7322 6.865C9.81735 6.865 7.45414 9.16417 7.45414 12C7.45414 14.8358 9.81735 17.1358 12.7322 17.1358C15.647 17.1358 18.0102 14.8367 18.0102 12C18.0102 9.16417 15.647 6.865 12.7322 6.865ZM12.7322 15.3333C10.8401 15.3333 9.30599 13.8417 9.30599 12C9.30599 10.1592 10.8401 8.66667 12.7322 8.66667C14.6243 8.66667 16.1584 10.1592 16.1584 12C16.1584 13.8417 14.6243 15.3333 12.7322 15.3333ZM18.2192 5.4625C17.5374 5.4625 16.9849 6 16.9849 6.6625C16.9849 7.325 17.5374 7.8625 18.2192 7.8625C18.9002 7.8625 19.4518 7.325 19.4518 6.6625C19.4518 6 18.9002 5.4625 18.2192 5.4625Z" fill="#969696"/>
</svg>
