<svg width="30" height="30" viewBox="0 0 30 30" fill="none" xmlns="http://www.w3.org/2000/svg">
<path d="M9.26818 13.8788C9.81636 11.8333 11.919 9.73069 13.9645 9.18252L26.7171 5.76494C28.7626 5.21677 29.9765 6.4306 29.4283 8.47611L26.0107 21.2288C25.4625 23.2743 23.3599 25.3769 21.3144 25.925L8.56177 29.3426C6.51626 29.8908 5.30243 28.677 5.8506 26.6315L9.26818 13.8788Z" fill="#9E77ED"/>
<path d="M4.15588 8.76623C4.70405 6.72071 6.80665 4.61812 8.85217 4.06994L21.6048 0.65236C23.6503 0.104183 24.8642 1.31801 24.316 3.36353L20.8984 16.1162C20.3502 18.1617 18.2476 20.2643 16.2021 20.8125L3.44947 24.23C1.40396 24.7782 0.190123 23.5644 0.738299 21.5189L4.15588 8.76623Z" fill="#6941C6"/>
</svg>
