<svg width="24" height="24" viewBox="0 0 24 24" fill="none" xmlns="http://www.w3.org/2000/svg">
<path d="M21.0001 7.125H3.00006C2.97092 7.125 2.93963 7.11319 2.91325 7.08681C2.88687 7.06043 2.87506 7.02914 2.87506 7C2.87506 6.97086 2.88687 6.93957 2.91325 6.91319C2.93963 6.88681 2.97092 6.875 3.00006 6.875H21.0001C21.0292 6.875 21.0605 6.88681 21.0869 6.91319C21.1132 6.93957 21.1251 6.97086 21.1251 7C21.1251 7.02914 21.1132 7.06043 21.0869 7.08681C21.0605 7.11319 21.0292 7.125 21.0001 7.125Z" fill="black" stroke="black" stroke-width="1.25"/>
<path d="M21.0001 12.75H3.00006C2.59006 12.75 2.25006 12.41 2.25006 12C2.25006 11.59 2.59006 11.25 3.00006 11.25H21.0001C21.4101 11.25 21.7501 11.59 21.7501 12C21.7501 12.41 21.4101 12.75 21.0001 12.75Z" fill="black"/>
<path d="M21.0001 17.75H3.00006C2.59006 17.75 2.25006 17.41 2.25006 17C2.25006 16.59 2.59006 16.25 3.00006 16.25H21.0001C21.4101 16.25 21.7501 16.59 21.7501 17C21.7501 17.41 21.4101 17.75 21.0001 17.75Z" fill="black"/>
</svg>
