<svg width="19" height="24" viewBox="0 0 19 24" fill="" xmlns="http://www.w3.org/2000/svg">
<path d="M0.5 23.75C0.5 21.3631 1.44821 19.0739 3.13604 17.386C4.82387 15.6982 7.11305 14.75 9.5 14.75C11.8869 14.75 14.1761 15.6982 15.864 17.386C17.5518 19.0739 18.5 21.3631 18.5 23.75H16.25C16.25 21.9598 15.5388 20.2429 14.273 18.977C13.0071 17.7112 11.2902 17 9.5 17C7.70979 17 5.9929 17.7112 4.72703 18.977C3.46116 20.2429 2.75 21.9598 2.75 23.75H0.5ZM9.5 13.625C5.77063 13.625 2.75 10.6044 2.75 6.875C2.75 3.14562 5.77063 0.125 9.5 0.125C13.2294 0.125 16.25 3.14562 16.25 6.875C16.25 10.6044 13.2294 13.625 9.5 13.625ZM9.5 11.375C11.9862 11.375 14 9.36125 14 6.875C14 4.38875 11.9862 2.375 9.5 2.375C7.01375 2.375 5 4.38875 5 6.875C5 9.36125 7.01375 11.375 9.5 11.375Z" fill=""/>
</svg>
