<svg width="31" height="30" viewBox="0 0 31 30" fill="none" xmlns="http://www.w3.org/2000/svg">
<path fill-rule="evenodd" clip-rule="evenodd" d="M15.5832 23.3111C20.1733 23.3111 23.8943 19.5901 23.8943 15C23.8943 10.4099 20.1733 6.6889 15.5832 6.6889C10.9931 6.6889 7.27206 10.4099 7.27206 15C7.27206 19.5901 10.9931 23.3111 15.5832 23.3111ZM15.5832 29.6667C23.6833 29.6667 30.2498 23.1002 30.2498 15C30.2498 6.89983 23.6833 0.333344 15.5832 0.333344C7.48299 0.333344 0.916504 6.89983 0.916504 15C0.916504 23.1002 7.48299 29.6667 15.5832 29.6667Z" fill="#6938EF"/>
<path d="M15.751 15.3211C17.2784 13.7938 19.7548 13.7938 21.2822 15.3211L28.8875 22.9265C30.4149 24.4539 30.4149 26.9302 28.8875 28.4576V28.4576C27.3601 29.985 24.8837 29.985 23.3564 28.4576L15.751 20.8523C14.2236 19.3249 14.2236 16.8485 15.751 15.3211V15.3211Z" fill="#F670C7"/>
<path d="M17.8862 22.9878L22.7165 27.8181C25.0332 26.526 26.9634 24.6239 28.2899 22.3292L23.4992 17.5385C22.6577 20.1648 20.5456 22.2224 17.8862 22.9878Z" fill="#6519BA"/>
</svg>
