<svg width="134" height="40" viewBox="0 0 134 40" fill="none" xmlns="http://www.w3.org/2000/svg">
<path d="M18.9163 1.66666C8.79108 1.66666 0.583008 9.87477 0.583008 20C0.583008 30.1252 8.79108 38.3333 18.9163 38.3333C28.0005 38.3333 35.5415 31.7263 36.9962 23.0555H36.8646C35.5078 28.3271 30.7225 32.2222 25.0274 32.2222C18.2773 32.2222 12.8052 26.7501 12.8052 20C12.8052 13.2498 18.2773 7.77777 25.0274 7.77777C30.7225 7.77777 35.5078 11.6729 36.8646 16.9444H36.9962C35.5415 8.27364 28.0005 1.66666 18.9163 1.66666Z" fill="#A4BCFD"/>
<path d="M0.583008 20C0.583008 9.87477 8.79112 1.66666 18.9163 1.66666C28.0005 1.66666 35.5415 8.27364 36.9962 16.9444H24.6424C23.2856 11.6729 18.5003 7.77777 12.8052 7.77777C6.05508 7.77777 0.583008 13.2498 0.583008 20Z" fill="#3538CD"/>
<path d="M0.583008 20C0.583008 30.1252 8.79112 38.3333 18.9163 38.3333C28.0005 38.3333 35.5415 31.7263 36.9962 23.0555H24.6424C23.2856 28.3271 18.5003 32.2222 12.8052 32.2222C6.05508 32.2222 0.583008 26.7501 0.583008 20Z" fill="#3538CD"/>
<path d="M63.4489 17.0892C62.9269 13.3191 60.0268 11.1316 56.2649 11.1316C51.8319 11.1316 48.4927 14.3632 48.4927 19.8485C48.4927 25.3255 51.7905 28.5653 56.2649 28.5653C60.3002 28.5653 62.9766 25.9552 63.4489 22.7154L60.3499 22.6989C59.9605 24.6875 58.3364 25.8061 56.3064 25.8061C53.5554 25.8061 51.5833 23.7429 51.5833 19.8485C51.5833 16.0204 53.5388 13.8909 56.3146 13.8909C58.3779 13.8909 59.9936 15.0592 60.3499 17.0892H63.4489Z" fill="black"/>
<path d="M69.7939 28.5902C71.7908 28.5902 72.984 27.6539 73.5308 26.585H73.6303V28.3333H76.5138V19.8153C76.5138 16.4512 73.7711 15.4403 71.3433 15.4403C68.667 15.4403 66.612 16.6335 65.9492 18.9536L68.7498 19.3513C69.0481 18.4813 69.8933 17.7356 71.3599 17.7356C72.752 17.7356 73.5143 18.4481 73.5143 19.6993V19.749C73.5143 20.6108 72.6111 20.6522 70.3656 20.8925C67.8964 21.1577 65.5349 21.8951 65.5349 24.7621C65.5349 27.2644 67.3661 28.5902 69.7939 28.5902ZM70.5727 26.3861C69.3216 26.3861 68.4267 25.8144 68.4267 24.7124C68.4267 23.5606 69.4293 23.08 70.7716 22.8894C71.5588 22.7817 73.1331 22.5829 73.5226 22.268V23.7678C73.5226 25.1847 72.3791 26.3861 70.5727 26.3861Z" fill="black"/>
<path d="M85.8852 15.6061H83.3746V12.5568H80.3751V15.6061H78.5687V17.9261H80.3751V25.0024C80.3585 27.397 82.0986 28.5736 84.3523 28.5073C85.2058 28.4825 85.7941 28.3168 86.1173 28.209L85.6118 25.8641C85.4461 25.9055 85.1064 25.9801 84.7335 25.9801C83.9795 25.9801 83.3746 25.715 83.3746 24.5052V17.9261H85.8852V15.6061Z" fill="black"/>
<path d="M92.0562 28.5902C94.0532 28.5902 95.2463 27.6539 95.7932 26.585H95.8926V28.3333H98.7762V19.8153C98.7762 16.4512 96.0335 15.4403 93.6057 15.4403C90.9293 15.4403 88.8744 16.6335 88.2115 18.9536L91.0122 19.3513C91.3105 18.4813 92.1557 17.7356 93.6223 17.7356C95.0143 17.7356 95.7766 18.4481 95.7766 19.6993V19.749C95.7766 20.6108 94.8735 20.6522 92.628 20.8925C90.1587 21.1577 87.7972 21.8951 87.7972 24.7621C87.7972 27.2644 89.6284 28.5902 92.0562 28.5902ZM92.8351 26.3861C91.5839 26.3861 90.689 25.8144 90.689 24.7124C90.689 23.5606 91.6916 23.08 93.034 22.8894C93.8211 22.7817 95.3955 22.5829 95.7849 22.268V23.7678C95.7849 25.1847 94.6415 26.3861 92.8351 26.3861Z" fill="black"/>
<path d="M104.792 11.3636H101.792V28.3333H104.792V11.3636Z" fill="black"/>
<path d="M113.428 28.5819C117.157 28.5819 119.526 25.9553 119.526 22.0194C119.526 18.0753 117.157 15.4403 113.428 15.4403C109.699 15.4403 107.329 18.0753 107.329 22.0194C107.329 25.9553 109.699 28.5819 113.428 28.5819ZM113.444 26.179C111.381 26.179 110.37 24.3395 110.37 22.0111C110.37 19.6828 111.381 17.8184 113.444 17.8184C115.474 17.8184 116.485 19.6828 116.485 22.0111C116.485 24.3395 115.474 26.179 113.444 26.179Z" fill="black"/>
<path d="M127.607 33.3712C131.046 33.3712 133.581 31.7969 133.581 28.5405V15.6061H130.623V17.7107H130.458C130.002 16.791 129.049 15.4403 126.803 15.4403C123.862 15.4403 121.55 17.7438 121.55 21.9283C121.55 26.0795 123.862 28.151 126.795 28.151C128.974 28.151 129.994 26.9827 130.458 26.0464H130.607V28.4576C130.607 30.3303 129.364 31.1008 127.657 31.1008C125.851 31.1008 125.055 30.2474 124.691 29.5017L121.989 30.1562C122.536 31.9377 124.367 33.3712 127.607 33.3712ZM127.632 25.7978C125.652 25.7978 124.608 24.2566 124.608 21.9117C124.608 19.5999 125.635 17.9013 127.632 17.9013C129.563 17.9013 130.623 19.5005 130.623 21.9117C130.623 24.3395 129.546 25.7978 127.632 25.7978Z" fill="black"/>
</svg>
