<svg width="184" height="48" viewBox="0 0 184 48" fill="none" xmlns="http://www.w3.org/2000/svg">
<path d="M16.2972 33.4286C24.9759 33.4286 32.0114 26.3931 32.0114 17.7143C32.0114 16.7307 31.9211 15.7682 31.7482 14.8347C30.8147 14.6618 29.8522 14.5714 28.8686 14.5714C20.1898 14.5714 13.1543 21.607 13.1543 30.2857C13.1543 31.2693 13.2447 32.2318 13.4175 33.1653C14.3511 33.3382 15.3136 33.4286 16.2972 33.4286Z" fill="#175CD3"/>
<path fill-rule="evenodd" clip-rule="evenodd" d="M13.4177 33.1653C6.11418 31.8127 0.583008 25.4095 0.583008 17.7143C0.583008 9.03553 7.61853 2 16.2973 2C23.9925 2 30.3958 7.53118 31.7483 14.8347C30.8148 14.6618 29.8523 14.5714 28.8687 14.5714C20.19 14.5714 13.1544 21.607 13.1544 30.2857C13.1544 31.2693 13.2448 32.2318 13.4177 33.1653Z" fill="#1570EF"/>
<path fill-rule="evenodd" clip-rule="evenodd" d="M16.2971 33.4285C24.9758 33.4285 32.0114 26.393 32.0114 17.7142C32.0114 16.7306 31.921 15.7682 31.7481 14.8346C39.0516 16.1872 44.5828 22.5905 44.5828 30.2857C44.5828 38.9644 37.5473 45.9999 28.8685 45.9999C21.1733 45.9999 14.7701 40.4688 13.4175 33.1653C14.351 33.3381 15.3135 33.4285 16.2971 33.4285Z" fill="#2E90FA"/>
<path d="M74.8109 28.904C74.2509 30.7147 73.2709 32.068 71.8709 32.964C70.4709 33.8413 68.8376 34.28 66.9709 34.28C65.1416 34.28 63.5549 33.8973 62.2109 33.132C60.8856 32.3667 59.8589 31.2747 59.1309 29.856C58.4216 28.4373 58.0669 26.7387 58.0669 24.76C58.0669 22.7813 58.4309 21.0827 59.1589 19.664C59.8869 18.2453 60.9136 17.1533 62.2389 16.388C63.5642 15.6227 65.1229 15.24 66.9149 15.24C68.8002 15.24 70.4149 15.6413 71.7589 16.444C73.1216 17.228 74.0549 18.4227 74.5589 20.028L71.0589 21.512C70.7416 20.392 70.2562 19.5987 69.6029 19.132C68.9496 18.6467 68.1096 18.404 67.0829 18.404C65.5522 18.404 64.3296 18.9547 63.4149 20.056C62.5189 21.1387 62.0709 22.7067 62.0709 24.76C62.0709 26.7947 62.5002 28.3627 63.3589 29.464C64.2176 30.5653 65.4589 31.116 67.0829 31.116C68.0909 31.116 68.9589 30.8453 69.6869 30.304C70.4336 29.7627 70.9562 28.9413 71.2549 27.84L74.8109 28.904Z" fill="black"/>
<path d="M79.6442 17.984C78.0575 17.984 77.2642 17.3027 77.2642 15.94C77.2642 14.5587 78.0575 13.868 79.6442 13.868C81.2308 13.868 82.0242 14.5587 82.0242 15.94C82.0242 17.3027 81.2308 17.984 79.6442 17.984ZM81.5482 20V34H77.7122V20H81.5482Z" fill="black"/>
<path d="M85.6145 34V20H88.9465L89.1985 22.744C89.5532 21.792 90.0852 21.0547 90.7945 20.532C91.5225 19.9907 92.4372 19.72 93.5385 19.72C94.1918 19.72 94.6958 19.8227 95.0505 20.028L94.6025 23.248C94.4158 23.192 94.1825 23.1453 93.9025 23.108C93.6412 23.052 93.2958 23.024 92.8665 23.024C92.2878 23.024 91.7372 23.164 91.2145 23.444C90.7105 23.7053 90.2905 24.116 89.9545 24.676C89.6185 25.2173 89.4505 25.908 89.4505 26.748V34H85.6145Z" fill="black"/>
<path d="M103.51 19.72C105.376 19.72 106.823 20.1213 107.85 20.924C108.895 21.7267 109.586 22.6973 109.922 23.836L106.338 25.124C105.964 23.4253 105.04 22.576 103.566 22.576C102.502 22.576 101.671 22.9493 101.074 23.696C100.495 24.4427 100.206 25.5533 100.206 27.028C100.206 28.5213 100.504 29.632 101.102 30.36C101.718 31.0693 102.548 31.424 103.594 31.424C105.218 31.424 106.188 30.5933 106.506 28.932L109.978 30.052C109.66 31.3027 108.951 32.32 107.85 33.104C106.767 33.888 105.358 34.28 103.622 34.28C102.166 34.28 100.887 33.9907 99.7856 33.412C98.7029 32.8333 97.8629 32.0027 97.2656 30.92C96.6682 29.8373 96.3696 28.5307 96.3696 27C96.3696 25.4693 96.6682 24.1627 97.2656 23.08C97.8816 21.9973 98.7216 21.1667 99.7856 20.588C100.868 20.0093 102.11 19.72 103.51 19.72Z" fill="black"/>
<path d="M119.342 19.72C120.742 19.72 121.984 20.0093 123.066 20.588C124.149 21.1667 124.989 21.9973 125.586 23.08C126.202 24.1627 126.51 25.4693 126.51 27C126.51 28.5307 126.202 29.8373 125.586 30.92C124.989 32.0027 124.149 32.8333 123.066 33.412C121.984 33.9907 120.742 34.28 119.342 34.28C117.924 34.28 116.673 33.9907 115.59 33.412C114.526 32.8333 113.686 32.0027 113.07 30.92C112.473 29.8373 112.174 28.5307 112.174 27C112.174 25.4693 112.473 24.1627 113.07 23.08C113.686 21.9973 114.526 21.1667 115.59 20.588C116.673 20.0093 117.924 19.72 119.342 19.72ZM119.342 22.576C118.297 22.576 117.476 22.9493 116.878 23.696C116.3 24.424 116.01 25.5253 116.01 27C116.01 28.4747 116.3 29.5853 116.878 30.332C117.476 31.06 118.297 31.424 119.342 31.424C120.369 31.424 121.172 31.06 121.75 30.332C122.348 29.5853 122.646 28.4747 122.646 27C122.646 25.5253 122.348 24.424 121.75 23.696C121.172 22.9493 120.369 22.576 119.342 22.576Z" fill="black"/>
<path d="M136.104 19.72C137.504 19.72 138.745 20.0093 139.828 20.588C140.911 21.1667 141.751 21.9973 142.348 23.08C142.964 24.1627 143.272 25.4693 143.272 27C143.272 28.5307 142.964 29.8373 142.348 30.92C141.751 32.0027 140.911 32.8333 139.828 33.412C138.745 33.9907 137.504 34.28 136.104 34.28C134.685 34.28 133.435 33.9907 132.352 33.412C131.288 32.8333 130.448 32.0027 129.832 30.92C129.235 29.8373 128.936 28.5307 128.936 27C128.936 25.4693 129.235 24.1627 129.832 23.08C130.448 21.9973 131.288 21.1667 132.352 20.588C133.435 20.0093 134.685 19.72 136.104 19.72ZM136.104 22.576C135.059 22.576 134.237 22.9493 133.64 23.696C133.061 24.424 132.772 25.5253 132.772 27C132.772 28.4747 133.061 29.5853 133.64 30.332C134.237 31.06 135.059 31.424 136.104 31.424C137.131 31.424 137.933 31.06 138.512 30.332C139.109 29.5853 139.408 28.4747 139.408 27C139.408 25.5253 139.109 24.424 138.512 23.696C137.933 22.9493 137.131 22.576 136.104 22.576Z" fill="black"/>
<path d="M150.262 13.868V29.688C150.262 30.3413 150.374 30.7987 150.598 31.06C150.822 31.3213 151.195 31.452 151.718 31.452C152.035 31.452 152.296 31.4333 152.502 31.396C152.707 31.3587 152.968 31.284 153.286 31.172L152.95 33.692C152.632 33.8787 152.231 34.0187 151.746 34.112C151.279 34.224 150.812 34.28 150.346 34.28C148.983 34.28 147.984 33.9533 147.35 33.3C146.734 32.628 146.426 31.564 146.426 30.108V13.868H150.262Z" fill="black"/>
<path d="M161.919 34.28C159.716 34.28 157.952 33.6453 156.627 32.376C155.302 31.088 154.639 29.296 154.639 27C154.639 25.4693 154.938 24.1627 155.535 23.08C156.132 21.9973 156.963 21.1667 158.027 20.588C159.11 20.0093 160.342 19.72 161.723 19.72C163.142 19.72 164.346 20.0093 165.335 20.588C166.324 21.148 167.08 21.9227 167.603 22.912C168.126 23.8827 168.387 24.9933 168.387 26.244C168.387 26.6173 168.378 26.972 168.359 27.308C168.34 27.644 168.312 27.9427 168.275 28.204H158.391C158.54 29.2867 158.914 30.0987 159.511 30.64C160.127 31.1627 160.92 31.424 161.891 31.424C162.712 31.424 163.375 31.2653 163.879 30.948C164.383 30.6307 164.775 30.192 165.055 29.632L168.107 30.808C167.659 31.9093 166.875 32.768 165.755 33.384C164.635 33.9813 163.356 34.28 161.919 34.28ZM161.695 22.548C159.884 22.548 158.792 23.5467 158.419 25.544H164.719C164.607 24.5733 164.29 23.836 163.767 23.332C163.263 22.8093 162.572 22.548 161.695 22.548Z" fill="black"/>
<path d="M177.238 34.28C175.819 34.28 174.522 34.028 173.346 33.524C172.189 33.02 171.246 32.3107 170.518 31.396L172.73 29.156C173.178 29.828 173.775 30.3787 174.522 30.808C175.269 31.2373 176.155 31.452 177.182 31.452C177.91 31.452 178.489 31.3493 178.918 31.144C179.366 30.92 179.59 30.5747 179.59 30.108C179.59 29.8093 179.487 29.5573 179.282 29.352C179.077 29.128 178.666 28.9507 178.05 28.82L175.586 28.316C173.962 27.98 172.805 27.476 172.114 26.804C171.442 26.1133 171.106 25.2267 171.106 24.144C171.106 23.3787 171.33 22.66 171.778 21.988C172.245 21.316 172.935 20.7747 173.85 20.364C174.765 19.9347 175.903 19.72 177.266 19.72C180.103 19.72 182.138 20.588 183.37 22.324L181.074 24.564C180.663 23.9107 180.122 23.416 179.45 23.08C178.797 22.7253 178.106 22.548 177.378 22.548C175.735 22.548 174.914 23.0053 174.914 23.92C174.914 24.2187 175.045 24.48 175.306 24.704C175.567 24.9093 176.043 25.0867 176.734 25.236L179.59 25.824C180.971 26.104 181.961 26.58 182.558 27.252C183.155 27.9053 183.454 28.6987 183.454 29.632C183.454 30.976 182.913 32.0867 181.83 32.964C180.766 33.8413 179.235 34.28 177.238 34.28Z" fill="black"/>
</svg>
