<svg width="98" height="32" viewBox="0 0 98 32" fill="none" xmlns="http://www.w3.org/2000/svg">
<path d="M9.26818 14.8788C9.81636 12.8333 11.919 10.7307 13.9645 10.1825L26.7171 6.76494C28.7626 6.21677 29.9765 7.4306 29.4283 9.47611L26.0107 22.2288C25.4625 24.2743 23.3599 26.3769 21.3144 26.925L8.56177 30.3426C6.51626 30.8908 5.30243 29.677 5.8506 27.6315L9.26818 14.8788Z" fill="#9E77ED"/>
<path d="M4.15588 9.76623C4.70405 7.72071 6.80665 5.61812 8.85217 5.06994L21.6048 1.65236C23.6503 1.10418 24.8642 2.31801 24.316 4.36353L20.8984 17.1162C20.3502 19.1617 18.2476 21.2643 16.2021 21.8125L3.44947 25.23C1.40396 25.7782 0.190123 24.5644 0.738299 22.5189L4.15588 9.76623Z" fill="#6941C6"/>
<path d="M41.2779 20.9493H45.6646V22.6667H39.1499V9.69333H41.2779V20.9493Z" fill="black"/>
<path d="M46.7348 17.4773C46.7348 16.4444 46.9464 15.5298 47.3695 14.7333C47.8051 13.9369 48.3899 13.3209 49.1242 12.8853C49.8708 12.4373 50.6922 12.2133 51.5882 12.2133C52.3971 12.2133 53.1002 12.3751 53.6975 12.6987C54.3073 13.0098 54.7926 13.4018 55.1535 13.8747V12.3813H57.3002V22.6667H55.1535V21.136C54.7926 21.6213 54.3011 22.0258 53.6788 22.3493C53.0566 22.6729 52.3473 22.8347 51.5508 22.8347C50.6673 22.8347 49.8584 22.6107 49.1242 22.1627C48.3899 21.7022 47.8051 21.0676 47.3695 20.2587C46.9464 19.4373 46.7348 18.5102 46.7348 17.4773ZM55.1535 17.5147C55.1535 16.8053 55.0042 16.1893 54.7055 15.6667C54.4193 15.144 54.0397 14.7458 53.5668 14.472C53.0939 14.1982 52.5837 14.0613 52.0362 14.0613C51.4886 14.0613 50.9784 14.1982 50.5055 14.472C50.0326 14.7333 49.6468 15.1253 49.3482 15.648C49.0619 16.1582 48.9188 16.768 48.9188 17.4773C48.9188 18.1867 49.0619 18.8089 49.3482 19.344C49.6468 19.8791 50.0326 20.2898 50.5055 20.576C50.9908 20.8498 51.5011 20.9867 52.0362 20.9867C52.5837 20.9867 53.0939 20.8498 53.5668 20.576C54.0397 20.3022 54.4193 19.904 54.7055 19.3813C55.0042 18.8462 55.1535 18.224 55.1535 17.5147Z" fill="black"/>
<path d="M69.3539 12.3813L63.0445 27.5013H60.8419L62.9325 22.4987L58.8819 12.3813H61.2525L64.1459 20.2213L67.1512 12.3813H69.3539Z" fill="black"/>
<path d="M80.3865 17.272C80.3865 17.6578 80.3616 18.0062 80.3118 18.3173H72.4531C72.5153 19.1387 72.8202 19.7982 73.3678 20.296C73.9153 20.7938 74.5873 21.0427 75.3838 21.0427C76.5287 21.0427 77.3376 20.5636 77.8105 19.6053H80.1065C79.7953 20.5511 79.2291 21.3289 78.4078 21.9387C77.5989 22.536 76.5909 22.8347 75.3838 22.8347C74.4007 22.8347 73.5171 22.6169 72.7331 22.1813C71.9616 21.7333 71.3518 21.1111 70.9038 20.3147C70.4682 19.5058 70.2505 18.5724 70.2505 17.5147C70.2505 16.4569 70.462 15.5298 70.8851 14.7333C71.3207 13.9244 71.9242 13.3022 72.6958 12.8667C73.4798 12.4311 74.3758 12.2133 75.3838 12.2133C76.3545 12.2133 77.2193 12.4249 77.9785 12.848C78.7376 13.2711 79.3287 13.8684 79.7518 14.64C80.1749 15.3991 80.3865 16.2764 80.3865 17.272ZM78.1651 16.6C78.1527 15.816 77.8727 15.1876 77.3251 14.7147C76.7776 14.2418 76.0993 14.0053 75.2905 14.0053C74.5562 14.0053 73.9278 14.2418 73.4051 14.7147C72.8825 15.1751 72.5713 15.8036 72.4718 16.6H78.1651Z" fill="black"/>
<path d="M84.6086 13.8747C84.9197 13.352 85.3304 12.9476 85.8406 12.6613C86.3633 12.3627 86.9793 12.2133 87.6886 12.2133V14.416H87.1473C86.3135 14.416 85.6788 14.6276 85.2433 15.0507C84.8202 15.4738 84.6086 16.208 84.6086 17.2533V22.6667H82.4806V12.3813H84.6086V13.8747Z" fill="black"/>
<path d="M93.378 22.8347C92.5691 22.8347 91.8411 22.6916 91.194 22.4053C90.5594 22.1067 90.0553 21.7084 89.682 21.2107C89.3087 20.7004 89.1096 20.1342 89.0847 19.512H91.2874C91.3247 19.9476 91.53 20.3147 91.9033 20.6133C92.2891 20.8996 92.7682 21.0427 93.3407 21.0427C93.938 21.0427 94.3985 20.9307 94.722 20.7067C95.058 20.4702 95.226 20.1716 95.226 19.8107C95.226 19.4249 95.0394 19.1387 94.666 18.952C94.3051 18.7653 93.7265 18.56 92.93 18.336C92.1585 18.1244 91.53 17.9191 91.0447 17.72C90.5593 17.5209 90.1362 17.216 89.7753 16.8053C89.4269 16.3947 89.2527 15.8533 89.2527 15.1813C89.2527 14.6338 89.4145 14.136 89.738 13.688C90.0616 13.2276 90.522 12.8667 91.1194 12.6053C91.7291 12.344 92.426 12.2133 93.21 12.2133C94.3798 12.2133 95.3193 12.512 96.0287 13.1093C96.7505 13.6942 97.1362 14.4969 97.186 15.5173H95.058C95.0207 15.0569 94.834 14.6898 94.498 14.416C94.162 14.1422 93.7078 14.0053 93.1353 14.0053C92.5753 14.0053 92.146 14.1111 91.8473 14.3227C91.5487 14.5342 91.3994 14.8142 91.3994 15.1627C91.3994 15.4364 91.4989 15.6667 91.698 15.8533C91.8971 16.04 92.1398 16.1893 92.426 16.3013C92.7122 16.4009 93.1354 16.5316 93.6954 16.6933C94.442 16.8924 95.0518 17.0978 95.5247 17.3093C96.01 17.5084 96.4269 17.8071 96.7753 18.2053C97.1238 18.6036 97.3042 19.1324 97.3167 19.792C97.3167 20.3769 97.1549 20.8996 96.8313 21.36C96.5078 21.8204 96.0473 22.1813 95.45 22.4427C94.8651 22.704 94.1745 22.8347 93.378 22.8347Z" fill="black"/>
</svg>
