<svg width="126" height="32" viewBox="0 0 126 32" fill="none" xmlns="http://www.w3.org/2000/svg">
<path fill-rule="evenodd" clip-rule="evenodd" d="M15.5832 24.3111C20.1733 24.3111 23.8943 20.5901 23.8943 16C23.8943 11.4099 20.1733 7.6889 15.5832 7.6889C10.9931 7.6889 7.27206 11.4099 7.27206 16C7.27206 20.5901 10.9931 24.3111 15.5832 24.3111ZM15.5832 30.6667C23.6833 30.6667 30.2498 24.1002 30.2498 16C30.2498 7.89983 23.6833 1.33334 15.5832 1.33334C7.48299 1.33334 0.916504 7.89983 0.916504 16C0.916504 24.1002 7.48299 30.6667 15.5832 30.6667Z" fill="#6938EF"/>
<path d="M15.751 16.3211C17.2784 14.7938 19.7548 14.7938 21.2822 16.3211L28.8875 23.9265C30.4149 25.4539 30.4149 27.9302 28.8875 29.4576V29.4576C27.3601 30.985 24.8837 30.985 23.3564 29.4576L15.751 21.8523C14.2236 20.3249 14.2236 17.8485 15.751 16.3211V16.3211Z" fill="#F670C7"/>
<path d="M17.8862 23.9878L22.7165 28.8181C25.0332 27.526 26.9634 25.6239 28.2899 23.3292L23.4992 18.5385C22.6577 21.1648 20.5456 23.2224 17.8862 23.9878Z" fill="#6519BA"/>
<path d="M53.93 24.0667C53.5069 24.5893 52.9905 24.9876 52.3807 25.2613C51.7834 25.5351 51.1238 25.672 50.402 25.672C49.4314 25.672 48.554 25.4605 47.77 25.0373C46.986 24.6267 46.09 23.8925 45.082 22.8347C43.8998 22.6853 42.842 22.3058 41.9087 21.696C40.9878 21.0862 40.266 20.3022 39.7434 19.344C39.2331 18.3733 38.978 17.3031 38.978 16.1333C38.978 14.8516 39.2829 13.7005 39.8927 12.68C40.5149 11.6471 41.3674 10.8382 42.45 10.2533C43.5451 9.66846 44.7709 9.37601 46.1274 9.37601C47.4838 9.37601 48.7034 9.66846 49.786 10.2533C50.8687 10.8382 51.7211 11.6471 52.3434 12.68C52.9656 13.7005 53.2767 14.8516 53.2767 16.1333C53.2767 17.6516 52.8474 18.9831 51.9887 20.128C51.1425 21.2729 50.0162 22.0693 48.61 22.5173C48.9211 22.8409 49.2198 23.0711 49.506 23.208C49.8047 23.3573 50.122 23.432 50.458 23.432C51.2669 23.432 51.9762 23.1085 52.586 22.4613L53.93 24.0667ZM42.0394 16.1333C42.0394 16.9422 42.2136 17.664 42.562 18.2987C42.9229 18.9333 43.4145 19.4311 44.0367 19.792C44.6589 20.1405 45.3558 20.3147 46.1274 20.3147C46.8989 20.3147 47.5958 20.1405 48.218 19.792C48.8403 19.4311 49.3256 18.9333 49.674 18.2987C50.0349 17.664 50.2154 16.9422 50.2154 16.1333C50.2154 15.3245 50.0349 14.6027 49.674 13.968C49.3256 13.3333 48.8403 12.8418 48.218 12.4933C47.5958 12.1325 46.8989 11.952 46.1274 11.952C45.3558 11.952 44.6589 12.1325 44.0367 12.4933C43.4145 12.8418 42.9229 13.3333 42.562 13.968C42.2136 14.6027 42.0394 15.3245 42.0394 16.1333Z" fill="black"/>
<path d="M65.4614 12.624V22.6667H62.6987V21.472C62.3129 21.9076 61.8525 22.2436 61.3174 22.48C60.7822 22.704 60.2036 22.816 59.5814 22.816C58.2622 22.816 57.2169 22.4365 56.4454 21.6773C55.6738 20.9182 55.288 19.792 55.288 18.2987V12.624H58.2V17.8693C58.2 19.4871 58.8782 20.296 60.2347 20.296C60.9316 20.296 61.4916 20.072 61.9147 19.624C62.3378 19.1636 62.5494 18.4853 62.5494 17.5893V12.624H65.4614Z" fill="black"/>
<path d="M72.9378 22.816C71.88 22.816 70.928 22.5982 70.0818 22.1627C69.248 21.7147 68.5947 21.0987 68.1218 20.3147C67.6489 19.5307 67.4125 18.6409 67.4125 17.6453C67.4125 16.6498 67.6489 15.76 68.1218 14.976C68.5947 14.192 69.248 13.5822 70.0818 13.1467C70.928 12.6987 71.88 12.4747 72.9378 12.4747C73.9956 12.4747 74.9414 12.6987 75.7751 13.1467C76.6089 13.5822 77.2622 14.192 77.7351 14.976C78.208 15.76 78.4445 16.6498 78.4445 17.6453C78.4445 18.6409 78.208 19.5307 77.7351 20.3147C77.2622 21.0987 76.6089 21.7147 75.7751 22.1627C74.9414 22.5982 73.9956 22.816 72.9378 22.816ZM72.9378 20.4267C73.6845 20.4267 74.2942 20.1778 74.7671 19.68C75.2525 19.1698 75.4951 18.4916 75.4951 17.6453C75.4951 16.7991 75.2525 16.1271 74.7671 15.6293C74.2942 15.1191 73.6845 14.864 72.9378 14.864C72.1911 14.864 71.5751 15.1191 71.0898 15.6293C70.6045 16.1271 70.3618 16.7991 70.3618 17.6453C70.3618 18.4916 70.6045 19.1698 71.0898 19.68C71.5751 20.1778 72.1911 20.4267 72.9378 20.4267Z" fill="black"/>
<path d="M86.8682 22.1813C86.582 22.3929 86.2273 22.5547 85.8042 22.6667C85.3936 22.7662 84.958 22.816 84.4976 22.816C83.3029 22.816 82.3758 22.5111 81.7162 21.9013C81.0691 21.2916 80.7456 20.3956 80.7456 19.2133V15.088H79.1962V12.848H80.7456V10.4027H83.6576V12.848H86.1589V15.088H83.6576V19.176C83.6576 19.5991 83.7633 19.9289 83.9749 20.1653C84.1989 20.3893 84.51 20.5013 84.9082 20.5013C85.3687 20.5013 85.7607 20.3769 86.0842 20.128L86.8682 22.1813Z" fill="black"/>
<path d="M88.5029 12.624H91.4149V22.6667H88.5029V12.624ZM89.9589 11.224C89.4238 11.224 88.9882 11.0685 88.6522 10.7573C88.3162 10.4462 88.1482 10.0605 88.1482 9.60001C88.1482 9.13957 88.3162 8.75379 88.6522 8.44268C88.9882 8.13157 89.4238 7.97601 89.9589 7.97601C90.494 7.97601 90.9295 8.12535 91.2655 8.42401C91.6015 8.72268 91.7695 9.09601 91.7695 9.54401C91.7695 10.0293 91.6015 10.4338 91.2655 10.7573C90.9295 11.0685 90.494 11.224 89.9589 11.224Z" fill="black"/>
<path d="M103.955 17.6827C103.955 17.72 103.936 17.9813 103.899 18.4667H96.3015C96.4383 19.0889 96.7619 19.5805 97.2721 19.9413C97.7823 20.3022 98.417 20.4827 99.1761 20.4827C99.6988 20.4827 100.159 20.408 100.557 20.2587C100.968 20.0969 101.348 19.848 101.696 19.512L103.245 21.192C102.3 22.2747 100.918 22.816 99.1015 22.816C97.969 22.816 96.9672 22.5982 96.0961 22.1627C95.225 21.7147 94.553 21.0987 94.0801 20.3147C93.6072 19.5307 93.3708 18.6409 93.3708 17.6453C93.3708 16.6622 93.601 15.7787 94.0615 14.9947C94.5343 14.1982 95.1752 13.5822 95.9841 13.1467C96.8055 12.6987 97.7201 12.4747 98.7281 12.4747C99.7112 12.4747 100.601 12.6862 101.397 13.1093C102.194 13.5325 102.816 14.1422 103.264 14.9387C103.725 15.7227 103.955 16.6373 103.955 17.6827ZM98.7468 14.6773C98.0872 14.6773 97.5335 14.864 97.0855 15.2373C96.6375 15.6107 96.3637 16.1209 96.2641 16.768H101.211C101.111 16.1333 100.837 15.6293 100.389 15.256C99.9415 14.8702 99.3939 14.6773 98.7468 14.6773Z" fill="black"/>
<path d="M111.997 12.4747C113.242 12.4747 114.244 12.848 115.003 13.5947C115.774 14.3413 116.16 15.4489 116.16 16.9173V22.6667H113.248V17.3653C113.248 16.5689 113.074 15.9778 112.726 15.592C112.377 15.1938 111.873 14.9947 111.214 14.9947C110.479 14.9947 109.894 15.2249 109.459 15.6853C109.023 16.1333 108.806 16.8053 108.806 17.7013V22.6667H105.893V12.624H108.675V13.8C109.061 13.3769 109.54 13.0533 110.112 12.8293C110.685 12.5929 111.313 12.4747 111.997 12.4747Z" fill="black"/>
<path d="M125.277 22.1813C124.991 22.3929 124.636 22.5547 124.213 22.6667C123.802 22.7662 123.367 22.816 122.906 22.816C121.712 22.816 120.785 22.5111 120.125 21.9013C119.478 21.2916 119.154 20.3956 119.154 19.2133V15.088H117.605V12.848H119.154V10.4027H122.066V12.848H124.568V15.088H122.066V19.176C122.066 19.5991 122.172 19.9289 122.384 20.1653C122.608 20.3893 122.919 20.5013 123.317 20.5013C123.778 20.5013 124.17 20.3769 124.493 20.128L125.277 22.1813Z" fill="black"/>
</svg>
